<?xml version="1.0" encoding="UTF-8" standalone="no"?>
<!DOCTYPE svg PUBLIC "-//W3C//DTD SVG 1.0//EN" "http://www.w3.org/TR/2001/PR-SVG-20010719/DTD/svg10.dtd">
<svg width="27cm" height="22cm" viewBox="197 37 525 421" xmlns="http://www.w3.org/2000/svg" xmlns:xlink="http://www.w3.org/1999/xlink">
  <g id="Hintergrund">
    <g>
      <rect style="fill: #ffffff; fill-opacity: 0; stroke-opacity: 1; stroke-width: 4; stroke: #ffffff" x="200" y="40" width="100" height="96.9167" rx="10" ry="10"/>
      <text font-size="42.3333" style="fill: #ffffff; fill-opacity: 1; stroke: none;text-anchor:middle;font-family:Lato;font-style:normal;font-weight:normal" x="250" y="103.8">
        <tspan x="250" y="103.8">b</tspan>
      </text>
    </g>
    <g>
      <rect style="fill: #ffffff; fill-opacity: 0; stroke-opacity: 1; stroke-width: 4; stroke: #ffffff" x="200" y="360" width="100" height="96.9167" rx="10" ry="10"/>
      <text font-size="42.3333" style="fill: #ffffff; fill-opacity: 1; stroke: none;text-anchor:middle;font-family:Lato;font-style:normal;font-weight:normal" x="250" y="423.8">
        <tspan x="250" y="423.8">a</tspan>
      </text>
    </g>
    <g>
      <rect style="fill: #ffffff; fill-opacity: 0; stroke-opacity: 1; stroke-width: 4; stroke: #ffffff" x="400" y="200" width="100" height="96.9167" rx="10" ry="10"/>
      <text font-size="42.3333" style="fill: #ffffff; fill-opacity: 1; stroke: none;text-anchor:middle;font-family:Lato;font-style:normal;font-weight:normal" x="450" y="263.8">
        <tspan x="450" y="263.8">c</tspan>
      </text>
    </g>
    <g>
      <rect style="fill: #ffffff; fill-opacity: 0; stroke-opacity: 1; stroke-width: 4; stroke: #ffffff" x="620" y="200" width="100" height="96.9167" rx="10" ry="10"/>
      <text font-size="42.3333" style="fill: #ffffff; fill-opacity: 1; stroke: none;text-anchor:middle;font-family:Lato;font-style:normal;font-weight:normal" x="670" y="263.8">
        <tspan x="670" y="263.8">d</tspan>
      </text>
    </g>
    <g>
      <line style="fill: none; stroke-opacity: 1; stroke-width: 2; stroke: #ffffff" x1="301.978" y1="130.04" x2="394.53" y2="204.083"/>
      <polyline style="fill: none; stroke-opacity: 1; stroke-width: 2; stroke: #ffffff" points="385.344,203.137 396.276,205.479 391.591,195.328 "/>
    </g>
    <g>
      <line style="fill: none; stroke-opacity: 1; stroke-width: 2; stroke: #ffffff" x1="301.978" y1="366.876" x2="394.53" y2="292.834"/>
      <polyline style="fill: none; stroke-opacity: 1; stroke-width: 2; stroke: #ffffff" points="391.591,301.589 396.276,291.437 385.344,293.78 "/>
    </g>
    <g>
      <line style="fill: none; stroke-opacity: 1; stroke-width: 2; stroke: #ffffff" x1="502.006" y1="248.458" x2="613.522" y2="248.458"/>
      <polyline style="fill: none; stroke-opacity: 1; stroke-width: 2; stroke: #ffffff" points="605.758,253.458 615.758,248.458 605.758,243.458 "/>
    </g>
    <g>
      <line style="fill: none; stroke-opacity: 1; stroke-width: 2; stroke: #ffffff" x1="225" y1="136.917" x2="225" y2="355.528"/>
      <polyline style="fill: none; stroke-opacity: 1; stroke-width: 2; stroke: #ffffff" points="220,347.764 225,357.764 230,347.764 "/>
    </g>
    <g>
      <line style="fill: none; stroke-opacity: 1; stroke-width: 2; stroke: #ffffff" x1="275" y1="360" x2="275" y2="141.389"/>
      <polyline style="fill: none; stroke-opacity: 1; stroke-width: 2; stroke: #ffffff" points="280,149.153 275,139.153 270,149.153 "/>
    </g>
  </g>
</svg>
