<?xml version="1.0" encoding="UTF-8" standalone="no"?>
<svg
   xmlns:dc="http://purl.org/dc/elements/1.1/"
   xmlns:cc="http://creativecommons.org/ns#"
   xmlns:rdf="http://www.w3.org/1999/02/22-rdf-syntax-ns#"
   xmlns:svg="http://www.w3.org/2000/svg"
   xmlns="http://www.w3.org/2000/svg"
   xmlns:sodipodi="http://sodipodi.sourceforge.net/DTD/sodipodi-0.dtd"
   xmlns:inkscape="http://www.inkscape.org/namespaces/inkscape"
   id="Layer_1"
   style="enable-background:new 0 0 24 24;"
   version="1.1"
   viewBox="0 0 24 24"
   xml:space="preserve"
   sodipodi:docname="cloud.svg"
   inkscape:version="0.92.3 (2405546, 2018-03-11)"><metadata
     id="metadata11"><rdf:RDF><cc:Work
         rdf:about=""><dc:format>image/svg+xml</dc:format><dc:type
           rdf:resource="http://purl.org/dc/dcmitype/StillImage" /></cc:Work></rdf:RDF></metadata><defs
     id="defs9" /><sodipodi:namedview
     pagecolor="#ffffff"
     bordercolor="#666666"
     borderopacity="1"
     objecttolerance="10"
     gridtolerance="10"
     guidetolerance="10"
     inkscape:pageopacity="0"
     inkscape:pageshadow="2"
     inkscape:window-width="1920"
     inkscape:window-height="1005"
     id="namedview7"
     showgrid="false"
     inkscape:zoom="9.8333333"
     inkscape:cx="12.305085"
     inkscape:cy="12"
     inkscape:window-x="0"
     inkscape:window-y="0"
     inkscape:window-maximized="1"
     inkscape:current-layer="Layer_1" /><style
     type="text/css"
     id="style2">
	.st0{fill:#1E232D;}
</style><path
     class="st0"
     d="M13,20.3V14h-2v6.3c-0.6,0.3-1,1-1,1.7c0,1.1,0.9,2,2,2s2-0.9,2-2C14,21.3,13.6,20.6,13,20.3z M22,17  c-0.7,0-1.4,0.4-1.7,1H17v-2h0.8c2.7,0,5.1-2,5.2-4.7c0.1-2.6-1.7-4.7-4.1-5.2C18.5,2.7,15.6,0,12,0c-0.2,0-0.4,0-0.6,0  C7.8,0.3,5,3.6,5,7.3C5,7.6,4.7,8,4.3,8.1c-2,0.3-3.5,2.2-3.3,4.3C1.2,14.5,3.1,16,5.2,16H7v2H3.7c-0.3-0.6-1-1-1.7-1  c-1.1,0-2,0.9-2,2c0,1.1,0.9,2,2,2c0.7,0,1.4-0.4,1.7-1H9v-6H5.2c-1.1,0-2.1-0.8-2.2-1.8c-0.1-1,0.6-2,1.7-2.2C6,9.8,7,8.6,7,7.3  c0-2.7,2-5,4.6-5.2c0.1,0,0.3,0,0.4,0c2.5,0,4.6,1.9,5,4.4l0.2,1.4l1.4,0.3c1.5,0.3,2.5,1.6,2.4,3.1c-0.1,1.6-1.5,2.8-3.2,2.8H15v6  h5.3c0.3,0.6,1,1,1.7,1c1.1,0,2-0.9,2-2C24,17.9,23.1,17,22,17z"
     id="path4" /><path
     style="fill:#000000;stroke-width:0.10169491"
     d="m 21.354499,20.940655 c -0.174178,-0.05052 -0.494517,-0.275163 -0.711864,-0.499213 l -0.395177,-0.407363 -2.618644,-9e-5 -2.618645,-9.1e-5 v -2.941076 -2.941076 l 1.855933,-0.03353 c 1.628918,-0.02943 1.912539,-0.05972 2.318726,-0.247636 0.610867,-0.282611 1.161356,-0.776434 1.489259,-1.335959 0.351251,-0.599363 0.438186,-1.70016 0.192652,-2.439395 C 20.510009,9.0212168 19.660962,8.3852621 18.140567,8.0532676 17.185357,7.8446875 17.309584,8.0269615 17.001528,6.3819941 16.583192,4.1481527 14.9123,2.4929302 12.69661,2.1174442 10.634355,1.7679606 8.526244,2.9018312 7.5471442,4.8871403 7.1829527,5.6256071 7.0523566,6.177025 6.9188786,7.5398736 6.805085,8.7017409 5.8992149,9.6861845 4.6961257,9.955424 c -1.2100406,0.270795 -1.9678042,1.396305 -1.6767939,2.49055 0.1593964,0.599356 0.5170605,1.019424 1.1266055,1.323174 0.5211394,0.259694 0.5716869,0.26475 2.6469112,0.26475 h 2.1156261 v 2.949153 2.949152 H 6.3086888 3.7089031 L 3.4400146,20.251759 C 3.114358,20.63878 2.4776542,20.943888 1.9893447,20.946919 1.5015495,20.94995 0.79848154,20.572816 0.43129368,20.11117 0.00967684,19.581093 -0.05469166,18.811712 0.26698411,18.147219 0.75144913,17.146447 2.0042149,16.773877 2.9739407,17.342174 3.2155379,17.483759 3.4614229,17.689691 3.5203517,17.799801 3.620462,17.986859 3.7407407,18 5.3527306,18 H 7.0779661 V 16.983051 15.966102 H 5.9298406 c -1.7924565,0 -2.8358358,-0.360411 -3.7817371,-1.306312 C 1.4468199,13.958506 1.1364332,13.245986 1.0933527,12.238517 1.0477432,11.171899 1.2471077,10.478227 1.8248079,9.6934766 2.3469623,8.9841799 3.0557034,8.4987758 3.9694599,8.2246423 4.8437576,7.9623466 4.9954861,7.7573161 5.0818752,6.7214365 5.3607169,3.3778839 7.8394294,0.60551545 11.001641,0.1003498 c 1.267094,-0.20241937 3.224336,0.17132295 4.395567,0.83934966 0.60162,0.34314134 1.459199,1.07053304 1.930443,1.63738614 0.589715,0.7093607 1.190969,1.9345776 1.391349,2.8352533 l 0.165052,0.7418734 0.580141,0.1709754 c 0.319078,0.094037 0.855038,0.3486499 1.191024,0.5658077 2.919388,1.8868919 3.068351,6.0149136 0.289158,8.0130896 -0.902179,0.648647 -1.822137,0.959619 -3.061324,1.034816 l -0.940678,0.05708 V 16.997992 18 h 1.688754 c 1.685182,0 1.689182,-5.08e-4 1.890969,-0.257075 0.443324,-0.563595 1.466901,-0.821271 2.184843,-0.550014 0.673262,0.254375 1.247917,1.117744 1.247917,1.874886 0,1.334965 -1.278954,2.256106 -2.600357,1.872858 z"
     id="path13"
     inkscape:connector-curvature="0" /><path
     style="fill:#000000;stroke-width:0.10169491"
     d="m 11.80678,23.925035 c -0.544479,-0.09276 -0.684279,-0.155063 -1.031049,-0.45953 -0.399021,-0.350346 -0.742718,-0.988538 -0.746379,-1.38591 -0.0044,-0.482742 0.255061,-1.082652 0.630919,-1.45851 l 0.383797,-0.383797 v -3.101695 -3.101695 h 0.966101 0.966102 v 3.133516 3.133517 l 0.314164,0.298687 c 0.17279,0.164278 0.38526,0.434904 0.472155,0.601392 0.204495,0.391804 0.202481,1.243139 -0.0039,1.642206 -0.369412,0.714363 -1.248596,1.201634 -1.951926,1.081819 z"
     id="path15"
     inkscape:connector-curvature="0" /></svg>