<?xml version="1.0" encoding="UTF-8" standalone="no"?>
<!DOCTYPE svg PUBLIC "-//W3C//DTD SVG 1.0//EN" "http://www.w3.org/TR/2001/PR-SVG-20010719/DTD/svg10.dtd">
<svg width="50cm" height="21cm" viewBox="-43 137 985 404" xmlns="http://www.w3.org/2000/svg" xmlns:xlink="http://www.w3.org/1999/xlink">
  <g id="Hintergrund">
    <g>
      <rect style="fill: #ffffff; fill-opacity: 0; stroke-opacity: 1; stroke-width: 4; stroke: #faad00" x="260" y="140" width="400" height="100" rx="10" ry="10"/>
      <text font-size="28.2222" style="fill: #faad00; fill-opacity: 1; stroke: none;text-anchor:middle;font-family:Lato;font-style:normal;font-weight:normal" x="460" y="200.261">
        <tspan x="460" y="200.261">present a single argument</tspan>
      </text>
    </g>
    <g>
      <rect style="fill: #ffffff; fill-opacity: 0; stroke-opacity: 1; stroke-width: 4; stroke: #ffffff" x="540" y="380" width="400" height="100" rx="10" ry="10"/>
      <text font-size="28.2222" style="fill: #ffffff; fill-opacity: 1; stroke: none;text-anchor:middle;font-family:Lato;font-style:normal;font-weight:normal" x="740" y="422.622">
        <tspan x="740" y="422.622">gather feeback &amp;</tspan>
        <tspan x="740" y="457.9">arguments from the user</tspan>
      </text>
    </g>
    <g>
      <rect style="fill: #ffffff; fill-opacity: 0; stroke-opacity: 1; stroke-width: 4; stroke: #ffffff" x="-40" y="380" width="400" height="100" rx="10" ry="10"/>
      <text font-size="28.2222" style="fill: #ffffff; fill-opacity: 1; stroke: none;text-anchor:middle;font-family:Lato;font-style:normal;font-weight:normal" x="160" y="440.261">
        <tspan x="160" y="440.261">select next argument</tspan>
      </text>
    </g>
    <g>
      <path style="fill: none; stroke-opacity: 1; stroke-width: 2; stroke: #faad00" d="M 660,215 A 364.645,364.645 0 0 1 837.881,376.062"/>
      <polyline style="fill: none; stroke-opacity: 1; stroke-width: 2; stroke: #faad00" points="829.851,371.531 838.953,378.024 838.687,366.847 "/>
    </g>
    <g>
      <path style="fill: none; stroke-opacity: 1; stroke-width: 2; stroke: #ffffff" d="M 640,480 A 330.833,330.833 0 0 1 263.678,482.543"/>
      <polyline style="fill: none; stroke-opacity: 1; stroke-width: 2; stroke: #ffffff" points="272.888,482.934 261.831,481.284 267.145,491.12 "/>
    </g>
    <g>
      <path style="fill: none; stroke-opacity: 1; stroke-width: 2; stroke: #ffffff" d="M 60,380 A 355.411,355.411 0 0 1 255.759,216.418"/>
      <polyline style="fill: none; stroke-opacity: 1; stroke-width: 2; stroke: #ffffff" points="249.927,223.559 257.875,215.696 246.816,214.056 "/>
    </g>
  </g>
</svg>
