<?xml version="1.0" encoding="UTF-8" standalone="no"?>
<svg
   xmlns:dc="http://purl.org/dc/elements/1.1/"
   xmlns:cc="http://creativecommons.org/ns#"
   xmlns:rdf="http://www.w3.org/1999/02/22-rdf-syntax-ns#"
   xmlns:svg="http://www.w3.org/2000/svg"
   xmlns="http://www.w3.org/2000/svg"
   xmlns:sodipodi="http://sodipodi.sourceforge.net/DTD/sodipodi-0.dtd"
   xmlns:inkscape="http://www.inkscape.org/namespaces/inkscape"
   enable-background="new 0 0 500 500"
   height="436.10101"
   id="Layer_1"
   version="1.1"
   viewBox="0 0 417.93201 436.10101"
   width="417.93201"
   xml:space="preserve"
   sodipodi:docname="gesture.svg"
   inkscape:version="0.92.3 (2405546, 2018-03-11)"><metadata
     id="metadata9"><rdf:RDF><cc:Work
         rdf:about=""><dc:format>image/svg+xml</dc:format><dc:type
           rdf:resource="http://purl.org/dc/dcmitype/StillImage" /><dc:title></dc:title></cc:Work></rdf:RDF></metadata><defs
     id="defs7" /><sodipodi:namedview
     pagecolor="#ffffff"
     bordercolor="#666666"
     borderopacity="1"
     objecttolerance="10"
     gridtolerance="10"
     guidetolerance="10"
     inkscape:pageopacity="0"
     inkscape:pageshadow="2"
     inkscape:window-width="1004"
     inkscape:window-height="480"
     id="namedview5"
     showgrid="false"
     fit-margin-top="0"
     fit-margin-left="0"
     fit-margin-right="0"
     fit-margin-bottom="0"
     inkscape:zoom="0.472"
     inkscape:cx="208.967"
     inkscape:cy="218.051"
     inkscape:window-x="361"
     inkscape:window-y="160"
     inkscape:window-maximized="0"
     inkscape:current-layer="Layer_1" /><path
     d="m 369.243,436.101 c 31.335,-50.695 48.689,-109.576 48.689,-167.718 0,-25.624 -2.633,-50.696 -9.086,-74.955 -4.719,-16.714 -18.437,-29.891 -36.341,-29.891 -10.805,0 -20.617,4.721 -27.254,12.271 v -3.185 c 0,-20.079 -16.267,-36.343 -36.346,-36.343 -20.078,0 -36.34,16.264 -36.34,36.343 V 154.45 c 0,-20.079 -16.262,-36.34 -36.341,-36.34 -20.079,0 -36.344,16.262 -36.344,36.34 V 36.34 C 199.88,16.263 183.618,0 163.54,0 143.461,0 127.197,16.264 127.197,36.34 v 207.246 c 0,10.08 -8.177,18.172 -18.17,18.172 -1.728,0 -3.365,-0.274 -4.996,-0.729 L 52.693,240.136 C 47.787,237.674 42.247,236.222 36.342,236.222 16.263,236.222 0,252.484 0,272.563 c 0,15.085 9.268,28.072 22.35,33.621 58.968,30.429 106.209,67.774 139.281,129.917 z"
     id="path2"
     inkscape:connector-curvature="0"
     style="clip-rule:evenodd;fill:#010101;fill-rule:evenodd" /></svg>