<?xml version="1.0" encoding="UTF-8" standalone="no"?>
<svg
   xmlns:dc="http://purl.org/dc/elements/1.1/"
   xmlns:cc="http://creativecommons.org/ns#"
   xmlns:rdf="http://www.w3.org/1999/02/22-rdf-syntax-ns#"
   xmlns:svg="http://www.w3.org/2000/svg"
   xmlns="http://www.w3.org/2000/svg"
   xmlns:sodipodi="http://sodipodi.sourceforge.net/DTD/sodipodi-0.dtd"
   xmlns:inkscape="http://www.inkscape.org/namespaces/inkscape"
   enable-background="new -0.288 -24.675 141.732 141.732"
   height="92.383003"
   id="Livello_1"
   version="1.1"
   viewBox="-0.288 -24.675 141.15601 92.383007"
   width="141.15601"
   xml:space="preserve"
   sodipodi:docname="group.svg"
   inkscape:version="0.92.3 (2405546, 2018-03-11)"><metadata
     id="metadata11"><rdf:RDF><cc:Work
         rdf:about=""><dc:format>image/svg+xml</dc:format><dc:type
           rdf:resource="http://purl.org/dc/dcmitype/StillImage" /><dc:title></dc:title></cc:Work></rdf:RDF></metadata><defs
     id="defs9" /><sodipodi:namedview
     pagecolor="#ffffff"
     bordercolor="#666666"
     borderopacity="1"
     objecttolerance="10"
     gridtolerance="10"
     guidetolerance="10"
     inkscape:pageopacity="0"
     inkscape:pageshadow="2"
     inkscape:window-width="1004"
     inkscape:window-height="480"
     id="namedview7"
     showgrid="false"
     fit-margin-top="0"
     fit-margin-left="0"
     fit-margin-right="0"
     fit-margin-bottom="0"
     inkscape:zoom="1.6651145"
     inkscape:cx="70.577997"
     inkscape:cy="46.192003"
     inkscape:window-x="0"
     inkscape:window-y="0"
     inkscape:window-maximized="0"
     inkscape:current-layer="Livello_1" /><g
     id="Livello_98"
     transform="translate(-0.288,-24.675)"><path
       d="M 37.164,60.964 C 17.418,61.378 1.395,74.75 0,91.622 h 18.693 l 0.009,-0.104 c 0.9,-10.901 6.48,-21.019 15.712,-28.487 0.891,-0.719 1.809,-1.409 2.75,-2.067 M 44.62,27.247 c 0,-2.408 0.255,-4.747 0.731,-6.98 -2.211,-1.199 -4.662,-1.872 -7.244,-1.872 -9.761,0 -17.673,9.526 -17.673,21.279 0,11.395 7.437,20.695 16.78,21.253 4.202,-2.928 8.886,-5.22 13.868,-6.815 1.054,-1.366 1.952,-2.902 2.681,-4.568 C 48.203,44.364 44.62,36.296 44.62,27.247 M 92.995,26.994 C 92.995,12.085 82.958,0 70.578,0 58.197,0 48.161,12.085 48.161,26.994 c 0,13.36 8.063,24.457 18.651,26.61 C 42.957,55.19 23.947,71.714 22.238,92.38 h 96.68 C 117.208,71.714 98.199,55.19 74.342,53.605 84.93,51.451 92.995,40.357 92.995,26.994 m 27.725,13.442 c 0,-11.753 -7.912,-21.28 -17.674,-21.28 -2.583,0 -5.031,0.676 -7.243,1.872 0.479,2.233 0.729,4.573 0.729,6.98 0,9.05 -3.582,17.117 -9.144,22.293 0.726,1.666 1.627,3.202 2.678,4.571 4.984,1.596 9.667,3.888 13.868,6.813 9.351,-0.555 16.786,-9.856 16.786,-21.249 m 20.436,51.947 C 139.76,75.511 123.738,62.14 103.992,61.726 c 0.94,0.657 1.857,1.346 2.749,2.066 9.23,7.469 14.812,17.586 15.713,28.484 l 0.009,0.104 z"
       id="path2"
       inkscape:connector-curvature="0" /></g><g
     id="Livello_1_1_"
     transform="translate(-0.288,-24.675)" /></svg>