<?xml version="1.0" encoding="UTF-8" standalone="no"?>
<svg
   xmlns:dc="http://purl.org/dc/elements/1.1/"
   xmlns:cc="http://creativecommons.org/ns#"
   xmlns:rdf="http://www.w3.org/1999/02/22-rdf-syntax-ns#"
   xmlns:svg="http://www.w3.org/2000/svg"
   xmlns="http://www.w3.org/2000/svg"
   xmlns:sodipodi="http://sodipodi.sourceforge.net/DTD/sodipodi-0.dtd"
   xmlns:inkscape="http://www.inkscape.org/namespaces/inkscape"
   height="430"
   id="svg2"
   version="1.1"
   width="210"
   sodipodi:docname="phone.svg"
   inkscape:version="0.92.3 (2405546, 2018-03-11)">
  <metadata
     id="metadata16">
    <rdf:RDF>
      <cc:Work
         rdf:about="">
        <dc:format>image/svg+xml</dc:format>
        <dc:type
           rdf:resource="http://purl.org/dc/dcmitype/StillImage" />
        <dc:title></dc:title>
      </cc:Work>
    </rdf:RDF>
  </metadata>
  <sodipodi:namedview
     pagecolor="#ffffff"
     bordercolor="#666666"
     borderopacity="1"
     objecttolerance="10"
     gridtolerance="10"
     guidetolerance="10"
     inkscape:pageopacity="0"
     inkscape:pageshadow="2"
     inkscape:window-width="1920"
     inkscape:window-height="1005"
     id="namedview14"
     showgrid="false"
     inkscape:zoom="2.6074563"
     inkscape:cx="-84.11486"
     inkscape:cy="270.56734"
     inkscape:window-x="0"
     inkscape:window-y="0"
     inkscape:window-maximized="1"
     inkscape:current-layer="svg2"
     fit-margin-top="0"
     fit-margin-left="0"
     fit-margin-right="0"
     fit-margin-bottom="0" />
  <defs
     id="defs4" />
  <g
     id="layer1"
     transform="translate(-151,-581.36218)"
     style="fill:#000000">
    <g
       id="g4305"
       style="fill:#000000">
      <g
         id="g4345"
         transform="translate(28,-40.00001)"
         style="fill:#000000">
        <g
           id="text2994"
           style="font-style:normal;font-variant:normal;font-weight:normal;font-stretch:normal;font-size:550px;line-height:125%;font-family:Ubuntu;-inkscape-font-specification:Ubuntu;text-align:start;letter-spacing:0px;word-spacing:0px;writing-mode:lr-tb;text-anchor:start;fill:#000000;fill-opacity:1;stroke:none">
          <g
             id="g3830"
             transform="translate(0,15.24359)"
             style="fill:#000000">
            <g
               id="g3838"
               style="fill:#000000">
              <g
                 id="g3785"
                 style="fill:#000000">
                <path
                   d="m 153,606.1186 c -7.85377,7.9e-4 -15.6653,3.22779 -21.21875,8.78125 -5.55346,5.55345 -8.78046,13.36498 -8.78125,21.21875 v 370 c 7.9e-4,7.8538 3.22779,15.6653 8.78125,21.2188 5.55345,5.5535 13.36498,8.7804 21.21875,8.7812 h 150 c 7.85377,-8e-4 15.6653,-3.2277 21.21875,-8.7812 5.55346,-5.5535 8.78046,-13.365 8.78125,-21.2188 v -370 c -7.9e-4,-7.85377 -3.22779,-15.6653 -8.78125,-21.21875 C 318.6653,609.34639 310.85377,606.11939 303,606.1186 Z m 59.28125,20 a 5.0062461,5.0062461 0 0 1 0.21875,0 5.0005,5.0005 0 0 1 0.5,0 h 30 a 5.0005,5.0005 0 1 1 0,10 h -30 a 5.0128984,5.0128984 0 0 1 -0.71875,-10 z m -79.28125,30 h 190 v 325 H 133 Z m 95,335 c 8.28427,0 15,6.71573 15,15 0,8.2843 -6.71573,15 -15,15 -8.28427,0 -15,-6.7157 -15,-15 0,-8.28427 6.71573,-15 15,-15 z"
                   id="rect3010"
                   style="color:#000000;font-style:normal;font-variant:normal;font-weight:normal;font-stretch:normal;font-size:medium;line-height:125%;font-family:Ubuntu;-inkscape-font-specification:Ubuntu;text-indent:0;text-align:start;text-decoration:none;text-decoration-line:none;letter-spacing:0;word-spacing:0;text-transform:none;writing-mode:lr-tb;direction:ltr;baseline-shift:baseline;text-anchor:start;display:inline;overflow:visible;visibility:visible;fill:#000000;fill-opacity:1;fill-rule:nonzero;stroke:none;stroke-width:60;marker:none;enable-background:accumulate"
                   inkscape:connector-curvature="0" />
              </g>
            </g>
          </g>
          <g
             id="layer1-4"
             transform="translate(539.77941,-13.359245)"
             style="fill:#000000">
            <g
               id="layer1-5"
               transform="translate(-573.14286,170.28574)"
               style="fill:#000000" />
          </g>
        </g>
      </g>
    </g>
  </g>
</svg>
